<svg xmlns="http://www.w3.org/2000/svg" viewBox="0 0 1200 580" width="1200" height="580">
  <defs>
    <radialGradient id="bg" cx="50%" cy="40%" r="70%">
      <stop offset="0%" stop-color="#1a1a1a"/>
      <stop offset="100%" stop-color="#080808"/>
    </radialGradient>
    <filter id="blur1"><feGaussianBlur stdDeviation="1.2"/></filter>
    <filter id="blur2"><feGaussianBlur stdDeviation="2"/></filter>
    <filter id="glow"><feGaussianBlur stdDeviation="3" result="g"/><feMerge><feMergeNode in="g"/><feMergeNode in="SourceGraphic"/></feMerge></filter>
    <radialGradient id="tooth" cx="50%" cy="30%" r="60%">
      <stop offset="0%" stop-color="#d0ccc0"/>
      <stop offset="60%" stop-color="#a09890"/>
      <stop offset="100%" stop-color="#706860"/>
    </radialGradient>
    <radialGradient id="toothB" cx="50%" cy="30%" r="60%">
      <stop offset="0%" stop-color="#c8c4b8"/>
      <stop offset="60%" stop-color="#989080"/>
      <stop offset="100%" stop-color="#686058"/>
    </radialGradient>
    <radialGradient id="nerve" cx="50%" cy="50%" r="50%">
      <stop offset="0%" stop-color="#3a3028"/>
      <stop offset="100%" stop-color="#201810"/>
    </radialGradient>
  </defs>

  <!-- Background -->
  <rect width="1200" height="580" fill="url(#bg)"/>

  <!-- Skull/jaw outline - upper -->
  <ellipse cx="600" cy="180" rx="520" ry="145" fill="none" stroke="#2a2820" stroke-width="8"/>
  <ellipse cx="600" cy="180" rx="510" ry="135" fill="#181610" opacity="0.6"/>

  <!-- Maxilla bone upper -->
  <path d="M140 230 Q600 290 1060 230 Q1060 310 600 340 Q140 310 140 230Z" fill="#141210" stroke="#222018" stroke-width="3"/>

  <!-- Mandible bone lower -->
  <path d="M160 340 Q600 390 1040 340 L1050 430 Q900 520 600 530 Q300 520 150 430 Z" fill="#121008" stroke="#1e1c14" stroke-width="3"/>

  <!-- Sinus cavities -->
  <ellipse cx="390" cy="175" rx="85" ry="55" fill="#0a0908" stroke="#1a1810" stroke-width="2" opacity="0.9"/>
  <ellipse cx="810" cy="175" rx="85" ry="55" fill="#0a0908" stroke="#1a1810" stroke-width="2" opacity="0.9"/>

  <!-- Nasal cavity -->
  <ellipse cx="600" cy="160" rx="55" ry="70" fill="#080706" stroke="#181610" stroke-width="2"/>
  <line x1="600" y1="120" x2="600" y2="220" stroke="#141210" stroke-width="3"/>

  <!-- ===== UPPER TEETH ===== -->
  <!-- Upper incisors & canines (front) -->
  <!-- #11 Central incisor - has fracture -->
  <g id="tooth-11">
    <rect x="547" y="248" width="32" height="72" rx="8" ry="5" fill="url(#tooth)" stroke="#888078" stroke-width="1.5"/>
    <rect x="552" y="260" width="22" height="45" rx="4" fill="url(#nerve)" opacity="0.7"/>
    <line x1="553" y1="252" x2="573" y2="290" stroke="#585048" stroke-width="1.5" opacity="0.7"/>
  </g>
  <!-- #21 Central incisor -->
  <g id="tooth-21">
    <rect x="581" y="248" width="32" height="72" rx="8" ry="5" fill="url(#tooth)" stroke="#888078" stroke-width="1.5"/>
    <rect x="586" y="260" width="22" height="45" rx="4" fill="url(#nerve)" opacity="0.7"/>
  </g>
  <!-- #12 Lateral incisor -->
  <g id="tooth-12">
    <rect x="514" y="252" width="28" height="65" rx="7" ry="5" fill="url(#tooth)" stroke="#888078" stroke-width="1.5"/>
    <rect x="519" y="263" width="18" height="40" rx="3" fill="url(#nerve)" opacity="0.7"/>
  </g>
  <!-- #22 Lateral incisor -->
  <g id="tooth-22">
    <rect x="615" y="252" width="28" height="65" rx="7" ry="5" fill="url(#tooth)" stroke="#888078" stroke-width="1.5"/>
    <rect x="620" y="263" width="18" height="40" rx="3" fill="url(#nerve)" opacity="0.7"/>
  </g>
  <!-- #13 Canine -->
  <g id="tooth-13">
    <rect x="477" y="253" width="30" height="70" rx="8" ry="6" fill="url(#tooth)" stroke="#888078" stroke-width="1.5"/>
    <rect x="482" y="265" width="20" height="44" rx="4" fill="url(#nerve)" opacity="0.7"/>
  </g>
  <!-- #23 Canine -->
  <g id="tooth-23">
    <rect x="650" y="253" width="30" height="70" rx="8" ry="6" fill="url(#tooth)" stroke="#888078" stroke-width="1.5"/>
    <rect x="655" y="265" width="20" height="44" rx="4" fill="url(#nerve)" opacity="0.7"/>
  </g>
  <!-- #14 Premolar (has bone loss) -->
  <g id="tooth-14">
    <rect x="437" y="256" width="32" height="65" rx="6" ry="6" fill="url(#toothB)" stroke="#807868" stroke-width="1.5"/>
    <rect x="442" y="268" width="10" height="38" rx="3" fill="url(#nerve)" opacity="0.7"/>
    <rect x="455" y="268" width="10" height="38" rx="3" fill="url(#nerve)" opacity="0.7"/>
    <!-- bone loss indicator -->
    <path d="M437 265 Q453 258 469 265" stroke="#4a3828" stroke-width="2" fill="none" opacity="0.8"/>
  </g>
  <!-- #24 Premolar -->
  <g id="tooth-24">
    <rect x="687" y="256" width="32" height="65" rx="6" ry="6" fill="url(#toothB)" stroke="#807868" stroke-width="1.5"/>
    <rect x="692" y="268" width="10" height="38" rx="3" fill="url(#nerve)" opacity="0.7"/>
    <rect x="705" y="268" width="10" height="38" rx="3" fill="url(#nerve)" opacity="0.7"/>
  </g>
  <!-- #15 Premolar -->
  <g id="tooth-15">
    <rect x="397" y="257" width="32" height="63" rx="6" ry="6" fill="url(#toothB)" stroke="#807868" stroke-width="1.5"/>
    <rect x="402" y="268" width="10" height="36" rx="3" fill="url(#nerve)" opacity="0.7"/>
    <rect x="415" y="268" width="10" height="36" rx="3" fill="url(#nerve)" opacity="0.7"/>
  </g>
  <!-- #25 Premolar -->
  <g id="tooth-25">
    <rect x="727" y="257" width="32" height="63" rx="6" ry="6" fill="url(#toothB)" stroke="#807868" stroke-width="1.5"/>
    <rect x="732" y="268" width="10" height="36" rx="3" fill="url(#nerve)" opacity="0.7"/>
    <rect x="745" y="268" width="10" height="36" rx="3" fill="url(#nerve)" opacity="0.7"/>
  </g>
  <!-- #16 First molar -->
  <g id="tooth-16">
    <rect x="348" y="256" width="42" height="66" rx="6" ry="7" fill="url(#toothB)" stroke="#807868" stroke-width="1.5"/>
    <rect x="353" y="266" width="11" height="40" rx="3" fill="url(#nerve)" opacity="0.7"/>
    <rect x="368" y="266" width="11" height="40" rx="3" fill="url(#nerve)" opacity="0.7"/>
    <rect x="363" y="260" width="8" height="8" rx="2" fill="#2a2010" opacity="0.6"/>
  </g>
  <!-- #26 First molar - CAVITY (HIGH) -->
  <g id="tooth-26">
    <rect x="766" y="256" width="42" height="66" rx="6" ry="7" fill="url(#toothB)" stroke="#807868" stroke-width="1.5"/>
    <rect x="771" y="266" width="11" height="40" rx="3" fill="url(#nerve)" opacity="0.8"/>
    <rect x="786" y="266" width="11" height="40" rx="3" fill="url(#nerve)" opacity="0.8"/>
    <!-- Cavity dark spot -->
    <ellipse cx="789" cy="262" rx="9" ry="7" fill="#1a1008" opacity="0.95"/>
    <ellipse cx="789" cy="263" rx="6" ry="5" fill="#0a0804" opacity="0.9"/>
  </g>
  <!-- #17 Second molar -->
  <g id="tooth-17">
    <rect x="296" y="258" width="44" height="63" rx="6" ry="7" fill="url(#toothB)" stroke="#807868" stroke-width="1.5"/>
    <rect x="301" y="268" width="12" height="38" rx="3" fill="url(#nerve)" opacity="0.7"/>
    <rect x="317" y="268" width="12" height="38" rx="3" fill="url(#nerve)" opacity="0.7"/>
  </g>
  <!-- #27 Second molar -->
  <g id="tooth-27">
    <rect x="816" y="258" width="44" height="63" rx="6" ry="7" fill="url(#toothB)" stroke="#807868" stroke-width="1.5"/>
    <rect x="821" y="268" width="12" height="38" rx="3" fill="url(#nerve)" opacity="0.7"/>
    <rect x="837" y="268" width="12" height="38" rx="3" fill="url(#nerve)" opacity="0.7"/>
  </g>
  <!-- #18 Third molar -->
  <g id="tooth-18">
    <rect x="243" y="263" width="44" height="58" rx="6" ry="7" fill="url(#toothB)" stroke="#707060" stroke-width="1.5"/>
    <rect x="248" y="272" width="12" height="35" rx="3" fill="url(#nerve)" opacity="0.6"/>
    <rect x="264" y="272" width="12" height="35" rx="3" fill="url(#nerve)" opacity="0.6"/>
  </g>
  <!-- #28 Third molar -->
  <g id="tooth-28">
    <rect x="869" y="263" width="44" height="58" rx="6" ry="7" fill="url(#toothB)" stroke="#707060" stroke-width="1.5"/>
    <rect x="874" y="272" width="12" height="35" rx="3" fill="url(#nerve)" opacity="0.6"/>
    <rect x="890" y="272" width="12" height="35" rx="3" fill="url(#nerve)" opacity="0.6"/>
  </g>

  <!-- ===== LOWER TEETH ===== -->
  <!-- #31 #41 Central incisors -->
  <g id="tooth-41">
    <rect x="547" y="338" width="28" height="65" rx="6" ry="4" fill="url(#tooth)" stroke="#888078" stroke-width="1.5"/>
    <rect x="552" y="348" width="18" height="42" rx="3" fill="url(#nerve)" opacity="0.7"/>
  </g>
  <g id="tooth-31">
    <rect x="579" y="338" width="28" height="65" rx="6" ry="4" fill="url(#tooth)" stroke="#888078" stroke-width="1.5"/>
    <rect x="584" y="348" width="18" height="42" rx="3" fill="url(#nerve)" opacity="0.7"/>
  </g>
  <!-- Lateral incisors lower -->
  <g id="tooth-42">
    <rect x="516" y="340" width="26" height="62" rx="6" ry="4" fill="url(#tooth)" stroke="#888078" stroke-width="1.5"/>
    <rect x="521" y="350" width="16" height="40" rx="3" fill="url(#nerve)" opacity="0.7"/>
  </g>
  <g id="tooth-32">
    <rect x="614" y="340" width="26" height="62" rx="6" ry="4" fill="url(#tooth)" stroke="#888078" stroke-width="1.5"/>
    <rect x="619" y="350" width="16" height="40" rx="3" fill="url(#nerve)" opacity="0.7"/>
  </g>
  <!-- Canines lower -->
  <g id="tooth-43">
    <rect x="479" y="340" width="30" height="66" rx="7" ry="5" fill="url(#tooth)" stroke="#888078" stroke-width="1.5"/>
    <rect x="484" y="350" width="20" height="44" rx="4" fill="url(#nerve)" opacity="0.7"/>
  </g>
  <g id="tooth-33">
    <rect x="646" y="340" width="30" height="66" rx="7" ry="5" fill="url(#tooth)" stroke="#888078" stroke-width="1.5"/>
    <rect x="651" y="350" width="20" height="44" rx="4" fill="url(#nerve)" opacity="0.7"/>
  </g>
  <!-- Premolars lower -->
  <g id="tooth-44">
    <rect x="439" y="341" width="33" height="64" rx="6" ry="5" fill="url(#toothB)" stroke="#807868" stroke-width="1.5"/>
    <rect x="444" y="352" width="10" height="38" rx="3" fill="url(#nerve)" opacity="0.7"/>
    <rect x="457" y="352" width="10" height="38" rx="3" fill="url(#nerve)" opacity="0.7"/>
  </g>
  <g id="tooth-34">
    <rect x="682" y="341" width="33" height="64" rx="6" ry="5" fill="url(#toothB)" stroke="#807868" stroke-width="1.5"/>
    <rect x="687" y="352" width="10" height="38" rx="3" fill="url(#nerve)" opacity="0.7"/>
    <rect x="700" y="352" width="10" height="38" rx="3" fill="url(#nerve)" opacity="0.7"/>
  </g>
  <!-- #45 Premolar - OLD FILLING -->
  <g id="tooth-45">
    <rect x="399" y="341" width="33" height="62" rx="6" ry="5" fill="url(#toothB)" stroke="#807868" stroke-width="1.5"/>
    <rect x="404" y="352" width="10" height="36" rx="3" fill="url(#nerve)" opacity="0.7"/>
    <rect x="417" y="352" width="10" height="36" rx="3" fill="url(#nerve)" opacity="0.7"/>
    <!-- Amalgam filling (bright white) -->
    <rect x="404" y="344" width="22" height="12" rx="2" fill="#c8c8c8" opacity="0.9" stroke="#a0a0a0" stroke-width="1"/>
    <!-- Marginal breakdown dark line -->
    <line x1="406" y1="355" x2="424" y2="355" stroke="#303020" stroke-width="1.5" opacity="0.7"/>
  </g>
  <g id="tooth-35">
    <rect x="722" y="341" width="33" height="62" rx="6" ry="5" fill="url(#toothB)" stroke="#807868" stroke-width="1.5"/>
    <rect x="727" y="352" width="10" height="36" rx="3" fill="url(#nerve)" opacity="0.7"/>
    <rect x="740" y="352" width="10" height="36" rx="3" fill="url(#nerve)" opacity="0.7"/>
  </g>
  <!-- First molars lower -->
  <g id="tooth-46">
    <rect x="348" y="341" width="44" height="65" rx="6" ry="6" fill="url(#toothB)" stroke="#807868" stroke-width="1.5"/>
    <rect x="353" y="352" width="12" height="40" rx="3" fill="url(#nerve)" opacity="0.7"/>
    <rect x="369" y="352" width="12" height="40" rx="3" fill="url(#nerve)" opacity="0.7"/>
  </g>
  <g id="tooth-36">
    <rect x="763" y="341" width="44" height="65" rx="6" ry="6" fill="url(#toothB)" stroke="#807868" stroke-width="1.5"/>
    <rect x="768" y="352" width="12" height="40" rx="3" fill="url(#nerve)" opacity="0.7"/>
    <rect x="784" y="352" width="12" height="40" rx="3" fill="url(#nerve)" opacity="0.7"/>
  </g>
  <!-- Second molars lower -->
  <g id="tooth-47">
    <rect x="295" y="342" width="45" height="62" rx="6" ry="6" fill="url(#toothB)" stroke="#807868" stroke-width="1.5"/>
    <rect x="300" y="352" width="13" height="38" rx="3" fill="url(#nerve)" opacity="0.7"/>
    <rect x="317" y="352" width="13" height="38" rx="3" fill="url(#nerve)" opacity="0.7"/>
  </g>
  <g id="tooth-37">
    <rect x="815" y="342" width="45" height="62" rx="6" ry="6" fill="url(#toothB)" stroke="#807868" stroke-width="1.5"/>
    <rect x="820" y="352" width="13" height="38" rx="3" fill="url(#nerve)" opacity="0.7"/>
    <rect x="837" y="352" width="13" height="38" rx="3" fill="url(#nerve)" opacity="0.7"/>
  </g>
  <!-- #38 Impacted wisdom - angled -->
  <g id="tooth-38" transform="rotate(-18,893,385)">
    <rect x="857" y="355" width="40" height="58" rx="6" ry="6" fill="url(#toothB)" stroke="#686050" stroke-width="1.5" opacity="0.85"/>
    <rect x="862" y="365" width="11" height="36" rx="3" fill="url(#nerve)" opacity="0.6"/>
    <rect x="877" y="365" width="11" height="36" rx="3" fill="url(#nerve)" opacity="0.6"/>
  </g>
  <!-- #48 Impacted wisdom other side -->
  <g id="tooth-48" transform="rotate(18,243,385)">
    <rect x="220" y="355" width="40" height="58" rx="6" ry="6" fill="url(#toothB)" stroke="#686050" stroke-width="1.5" opacity="0.85"/>
    <rect x="225" y="365" width="11" height="36" rx="3" fill="url(#nerve)" opacity="0.6"/>
    <rect x="240" y="365" width="11" height="36" rx="3" fill="url(#nerve)" opacity="0.6"/>
  </g>

  <!-- Mandibular nerve canal -->
  <path d="M175 440 Q400 480 600 478 Q800 480 1025 440" stroke="#2a2818" stroke-width="5" fill="none" opacity="0.6"/>
  <path d="M175 440 Q400 480 600 478 Q800 480 1025 440" stroke="#1a1808" stroke-width="3" fill="none"/>

  <!-- Cervical spine -->
  <rect x="560" y="490" width="80" height="70" rx="8" fill="#161410" stroke="#222018" stroke-width="2" opacity="0.5"/>
  <rect x="572" y="495" width="56" height="20" rx="4" fill="#1e1c14" stroke="#2a2818" stroke-width="1.5"/>
  <rect x="572" y="520" width="56" height="20" rx="4" fill="#1e1c14" stroke="#2a2818" stroke-width="1.5"/>
  <rect x="572" y="545" width="56" height="10" rx="3" fill="#1e1c14" stroke="#2a2818" stroke-width="1.5"/>

  <!-- TMJ joints -->
  <ellipse cx="160" cy="290" rx="30" ry="20" fill="#1a1810" stroke="#2a2818" stroke-width="2"/>
  <ellipse cx="1040" cy="290" rx="30" ry="20" fill="#1a1810" stroke="#2a2818" stroke-width="2"/>

  <!-- Film label -->
  <rect x="20" y="20" width="140" height="50" rx="4" fill="none" stroke="#2a2820" stroke-width="1.5"/>
  <text x="30" y="42" fill="#404038" font-size="10" font-family="monospace">OPG DEMO SCAN</text>
  <text x="30" y="58" fill="#404038" font-size="10" font-family="monospace">DentalVision AI</text>
  <text x="1000" y="40" fill="#404038" font-size="10" font-family="monospace">L</text>
  <text x="180" y="40" fill="#404038" font-size="10" font-family="monospace">R</text>

  <!-- Subtle noise overlay for realism -->
  <filter id="noise"><feTurbulence type="fractalNoise" baseFrequency="0.9" numOctaves="4" stitchTiles="stitch"/><feColorMatrix type="saturate" values="0"/><feBlend in="SourceGraphic" mode="multiply" result="blend"/><feComposite in="blend" in2="SourceGraphic" operator="in"/></filter>
  <rect width="1200" height="580" fill="transparent" filter="url(#noise)" opacity="0.04"/>
</svg>
